<svg width="216" height="133" viewBox="0 0 216 133" fill="none" xmlns="http://www.w3.org/2000/svg">
<path fill-rule="evenodd" clip-rule="evenodd" d="M86.7114 0C84.8513 0 83.2367 1.28221 82.8154 3.09395L74.1054 40.547L74 41L74.1054 41.453L82.8154 78.9061C83.2367 80.7178 84.8513 82 86.7114 82H129.501C131.328 82 132.922 80.7628 133.376 78.9935L142.991 41.4967L143.118 41L142.991 40.5033L133.376 3.0065C132.922 1.23725 131.328 0 129.501 0H86.7114ZM87.1231 4H129.053V78H87.1231V4ZM133.053 64.1477V17.8523L138.989 41L133.053 64.1477ZM83.1231 62.5705L78.1067 41L83.1231 19.4295V62.5705ZM92.0534 7H90.0534V9V73V75H92.0534H124.053H126.053V73V9V7H124.053H92.0534ZM94.0534 71V11H122.053V71H94.0534ZM110.748 37.2918L108.053 29L105.359 37.2918H96.6407L103.694 42.4164L101 50.7082L108.053 45.5836L115.107 50.7082L112.413 42.4164L119.466 37.2918H110.748Z" fill="url(#paint0_linear_31_16)"/>
<path d="M11.304 107.568C11.4747 106.501 11.56 105.648 11.56 105.008C11.56 104.56 11.5173 104.208 11.432 103.952C11.368 103.696 11.2827 103.568 11.176 103.568C10.856 103.568 10.4827 103.835 10.056 104.368C9.65067 104.901 9.29867 105.541 9 106.288C8.72267 107.013 8.584 107.664 8.584 108.24C8.584 108.965 8.936 109.701 9.64 110.448C10.3653 111.173 11.4213 112.069 12.808 113.136C13.8533 113.904 14.632 114.544 15.144 115.056C15.656 115.547 15.9227 115.995 15.944 116.4C15.9653 117.296 15.496 118.181 14.536 119.056C13.576 119.909 12.3707 120.613 10.92 121.168C9.49067 121.723 8.15733 122 6.92 122C5.96 122 4.968 121.765 3.944 121.296C2.92 120.805 2.06667 120.24 1.384 119.6C0.701333 118.939 0.349333 118.363 0.328 117.872C0.285333 116.933 0.594667 116.176 1.256 115.6C1.91733 115.003 2.80267 114.704 3.912 114.704C4.46667 114.704 5.032 114.779 5.608 114.928C5.864 116.336 6.088 117.349 6.28 117.968C7.53867 117.648 8.904 117.093 10.376 116.304C5.61867 112.699 3.24 109.883 3.24 107.856C3.24 106.875 3.60267 105.701 4.328 104.336C5.05333 102.949 6.01333 101.765 7.208 100.784C8.40267 99.7813 9.66133 99.28 10.984 99.28C11.9653 99.28 12.9147 99.6107 13.832 100.272C14.7493 100.933 15.496 101.744 16.072 102.704C16.648 103.664 16.936 104.56 16.936 105.392C16.936 106.203 16.6053 106.853 15.944 107.344C15.304 107.813 14.504 108.048 13.544 108.048C12.7973 108.048 12.0507 107.888 11.304 107.568ZM35.3612 100.464C35.6173 102.021 35.7453 103.525 35.7453 104.976C35.7453 108.155 35.2333 111.056 34.2093 113.68C33.1853 116.304 31.8519 118.373 30.2093 119.888C28.5666 121.403 26.8919 122.16 25.1853 122.16C24.3319 122.16 23.3399 121.851 22.2093 121.232C21.0999 120.592 20.1399 119.835 19.3293 118.96C18.5186 118.064 18.1133 117.275 18.1133 116.592C18.1133 115.099 18.3693 112.699 18.8813 109.392C19.3933 106.085 20.0013 103.216 20.7053 100.784C21.4093 100.443 22.1453 100.272 22.9133 100.272C23.7239 100.272 24.4279 100.496 25.0253 100.944C25.6226 101.371 26.0279 101.979 26.2413 102.768C25.6226 104.197 25.0146 106.213 24.4173 108.816C23.8413 111.419 23.5533 113.541 23.5533 115.184C23.5533 116.784 23.8626 117.584 24.4813 117.584C25.3986 117.584 26.2946 116.997 27.1693 115.824C28.0439 114.629 28.7586 113.093 29.3133 111.216C29.8679 109.317 30.1453 107.397 30.1453 105.456C30.1453 104.005 29.9746 102.64 29.6333 101.36C30.6999 100.187 31.8306 99.6 33.0253 99.6C33.8573 99.6 34.6359 99.888 35.3612 100.464ZM41.9825 122C41.4918 122 40.9052 121.819 40.2225 121.456C39.5612 121.093 38.9745 120.667 38.4625 120.176C37.9718 119.685 37.7265 119.28 37.7265 118.96C37.7265 118.405 38.2492 115.579 39.2945 110.48C39.4225 109.883 39.6252 108.869 39.9025 107.44C40.2012 105.989 40.4038 104.944 40.5105 104.304L39.3265 104.496C38.6652 103.877 38.3345 103.099 38.3345 102.16C38.3345 101.499 38.5158 100.816 38.8785 100.112C40.6065 99.664 42.3558 99.44 44.1265 99.44C46.0038 99.44 47.7425 99.6853 49.3425 100.176C50.9638 100.667 52.2758 101.424 53.2785 102.448C54.2812 103.451 54.7825 104.709 54.7825 106.224C54.7825 107.568 54.3345 108.848 53.4385 110.064C52.5638 111.259 51.2838 112.251 49.5985 113.04C47.9132 113.829 45.9292 114.309 43.6465 114.48C43.4972 115.504 43.3798 116.432 43.2945 117.264C43.1025 118.885 42.9212 120.08 42.7505 120.848C42.5798 121.616 42.3238 122 41.9825 122ZM44.1265 110.512C45.9825 110.149 47.4118 109.595 48.4145 108.848C49.4385 108.08 49.9505 107.227 49.9505 106.288C49.9505 105.648 49.6305 105.115 48.9905 104.688C48.3718 104.24 47.5292 104.016 46.4625 104.016C46.0785 104.016 45.6625 104.048 45.2145 104.112L44.7025 107.12C44.4038 108.805 44.2118 109.936 44.1265 110.512ZM70.791 99.6C71.1963 99.8347 71.495 100.165 71.687 100.592C71.9003 100.997 72.007 101.445 72.007 101.936C72.007 102.363 71.9217 102.789 71.751 103.216C71.5803 103.643 71.3563 103.995 71.079 104.272C68.327 104.315 66.0337 104.421 64.199 104.592C63.8363 105.893 63.495 107.344 63.175 108.944C65.3083 108.773 67.111 108.517 68.583 108.176C69.0097 108.432 69.3297 108.773 69.543 109.2C69.7777 109.605 69.895 110.053 69.895 110.544C69.895 110.992 69.799 111.419 69.607 111.824C69.4363 112.208 69.191 112.517 68.871 112.752C68.4657 112.795 68.071 112.827 67.687 112.848C67.303 112.869 66.9297 112.891 66.567 112.912L62.439 113.2L61.863 116.08L61.543 117.616C62.8443 117.488 64.0177 117.317 65.063 117.104C66.1297 116.869 67.2497 116.549 68.423 116.144C69.0203 116.421 69.479 116.816 69.799 117.328C70.1403 117.819 70.311 118.363 70.311 118.96C70.311 119.813 69.9803 120.571 69.319 121.232C67.9963 121.488 66.5137 121.68 64.871 121.808C63.2283 121.936 61.703 122 60.295 122C59.911 122 59.4097 121.808 58.791 121.424C58.1723 121.04 57.6177 120.592 57.127 120.08C56.6577 119.568 56.423 119.131 56.423 118.768C56.423 118.448 56.6683 117.211 57.159 115.056C57.5217 113.477 57.8737 111.835 58.215 110.128C58.4497 108.955 58.567 108.368 58.567 108.368C58.9083 106.704 59.1323 105.499 59.239 104.752L57.895 104.848C57.4897 104.635 57.159 104.325 56.903 103.92C56.6683 103.493 56.551 103.035 56.551 102.544C56.551 101.691 56.8817 100.933 57.543 100.272C60.4657 100.229 63.0043 100.165 65.159 100.08C67.335 99.9947 69.2123 99.8347 70.791 99.6ZM86.4625 122.192C84.9478 121.317 83.6038 120.229 82.4305 118.928C81.2572 117.627 80.3078 116.144 79.5825 114.48L79.4545 115.824C79.2412 117.893 79.0278 119.44 78.8145 120.464C78.6225 121.488 78.3452 122 77.9825 122C77.4918 122 76.9052 121.819 76.2225 121.456C75.5612 121.093 74.9745 120.667 74.4625 120.176C73.9718 119.685 73.7265 119.28 73.7265 118.96C73.7265 118.405 74.2492 115.579 75.2945 110.48C75.4225 109.883 75.6252 108.869 75.9025 107.44C76.2012 105.989 76.4038 104.944 76.5105 104.304L75.3265 104.496C74.6652 103.877 74.3345 103.099 74.3345 102.16C74.3345 101.499 74.5158 100.816 74.8785 100.112C76.6065 99.664 78.3558 99.44 80.1265 99.44C82.0038 99.44 83.7425 99.6853 85.3425 100.176C86.9638 100.667 88.2758 101.424 89.2785 102.448C90.2812 103.451 90.7825 104.709 90.7825 106.224C90.7825 107.995 90.0892 109.52 88.7025 110.8C87.3158 112.059 85.2785 112.901 82.5905 113.328C83.6572 114.331 84.7238 115.141 85.7905 115.76C86.8785 116.357 88.2438 116.933 89.8865 117.488C89.9718 117.829 90.0145 118.203 90.0145 118.608C90.0145 119.589 89.7158 120.4 89.1185 121.04C88.5212 121.68 87.6358 122.064 86.4625 122.192ZM80.1905 110.224C81.8758 110.053 83.2518 109.605 84.3185 108.88C85.4065 108.155 85.9505 107.291 85.9505 106.288C85.9505 105.648 85.6305 105.115 84.9905 104.688C84.3718 104.24 83.5292 104.016 82.4625 104.016C82.0785 104.016 81.6625 104.048 81.2145 104.112C80.8732 106.075 80.7132 107.013 80.7345 106.928C80.5425 107.973 80.3612 109.072 80.1905 110.224ZM93.9975 113.712C93.5708 113.499 93.2295 113.189 92.9735 112.784C92.7388 112.357 92.6215 111.899 92.6215 111.408C92.6215 110.555 92.9415 109.84 93.5815 109.264C94.8615 109.264 96.1415 109.232 97.4215 109.168C98.7015 109.104 99.9708 109.019 101.23 108.912C101.592 108.891 102.414 108.837 103.694 108.752C104.099 108.987 104.398 109.307 104.59 109.712C104.803 110.096 104.91 110.523 104.91 110.992C104.91 111.419 104.824 111.835 104.654 112.24C104.483 112.624 104.259 112.955 103.982 113.232C101.379 113.275 98.0508 113.435 93.9975 113.712ZM122.711 99.6C123.116 99.8347 123.415 100.165 123.607 100.592C123.82 100.997 123.927 101.445 123.927 101.936C123.927 102.363 123.842 102.789 123.671 103.216C123.5 103.643 123.276 103.995 122.999 104.272C122.679 104.251 122.199 104.24 121.559 104.24C121.154 104.24 120.418 104.261 119.351 104.304L117.655 104.336C117.762 103.717 117.506 105.157 116.887 108.656L116.247 112.304C116.034 113.563 115.81 115.216 115.575 117.264C115.362 119.013 115.17 120.24 114.999 120.944C114.85 121.648 114.604 122 114.263 122C113.772 122 113.186 121.829 112.503 121.488C111.842 121.125 111.255 120.699 110.743 120.208C110.252 119.717 110.007 119.312 110.007 118.992C109.986 118.501 110.242 117.051 110.775 114.64C111.18 112.613 111.468 111.109 111.639 110.128C111.639 110.171 111.81 109.285 112.151 107.472C112.45 105.851 112.631 104.859 112.695 104.496L107.703 105.104C107.298 104.891 106.967 104.581 106.711 104.176C106.476 103.749 106.359 103.291 106.359 102.8C106.359 101.947 106.69 101.189 107.351 100.528C108.567 100.357 110.082 100.251 111.895 100.208C113.73 100.144 114.818 100.101 115.159 100.08C117.399 100.016 119.031 99.9627 120.055 99.92C121.1 99.856 121.986 99.7493 122.711 99.6ZM137.556 122.192C136.042 121.317 134.698 120.229 133.524 118.928C132.351 117.627 131.402 116.144 130.676 114.48L130.548 115.824C130.335 117.893 130.122 119.44 129.908 120.464C129.716 121.488 129.439 122 129.076 122C128.586 122 127.999 121.819 127.316 121.456C126.655 121.093 126.068 120.667 125.556 120.176C125.066 119.685 124.82 119.28 124.82 118.96C124.82 118.405 125.343 115.579 126.388 110.48C126.516 109.883 126.719 108.869 126.996 107.44C127.295 105.989 127.498 104.944 127.604 104.304L126.42 104.496C125.759 103.877 125.428 103.099 125.428 102.16C125.428 101.499 125.61 100.816 125.972 100.112C127.7 99.664 129.45 99.44 131.22 99.44C133.098 99.44 134.836 99.6853 136.436 100.176C138.058 100.667 139.37 101.424 140.372 102.448C141.375 103.451 141.876 104.709 141.876 106.224C141.876 107.995 141.183 109.52 139.796 110.8C138.41 112.059 136.372 112.901 133.684 113.328C134.751 114.331 135.818 115.141 136.884 115.76C137.972 116.357 139.338 116.933 140.98 117.488C141.066 117.829 141.108 118.203 141.108 118.608C141.108 119.589 140.81 120.4 140.212 121.04C139.615 121.68 138.73 122.064 137.556 122.192ZM131.284 110.224C132.97 110.053 134.346 109.605 135.412 108.88C136.5 108.155 137.044 107.291 137.044 106.288C137.044 105.648 136.724 105.115 136.084 104.688C135.466 104.24 134.623 104.016 133.556 104.016C133.172 104.016 132.756 104.048 132.308 104.112C131.967 106.075 131.807 107.013 131.828 106.928C131.636 107.973 131.455 109.072 131.284 110.224ZM160.299 100.464C160.555 102.021 160.683 103.525 160.683 104.976C160.683 108.155 160.171 111.056 159.147 113.68C158.123 116.304 156.789 118.373 155.147 119.888C153.504 121.403 151.829 122.16 150.123 122.16C149.269 122.16 148.277 121.851 147.147 121.232C146.037 120.592 145.077 119.835 144.267 118.96C143.456 118.064 143.051 117.275 143.051 116.592C143.051 115.099 143.307 112.699 143.819 109.392C144.331 106.085 144.939 103.216 145.643 100.784C146.347 100.443 147.083 100.272 147.851 100.272C148.661 100.272 149.365 100.496 149.963 100.944C150.56 101.371 150.965 101.979 151.179 102.768C150.56 104.197 149.952 106.213 149.355 108.816C148.779 111.419 148.491 113.541 148.491 115.184C148.491 116.784 148.8 117.584 149.419 117.584C150.336 117.584 151.232 116.997 152.107 115.824C152.981 114.629 153.696 113.093 154.251 111.216C154.805 109.317 155.083 107.397 155.083 105.456C155.083 104.005 154.912 102.64 154.571 101.36C155.637 100.187 156.768 99.6 157.963 99.6C158.795 99.6 159.573 99.888 160.299 100.464ZM176.584 99.6C176.989 99.6 177.533 99.7813 178.216 100.144C178.92 100.507 179.528 100.933 180.04 101.424C180.573 101.915 180.84 102.341 180.84 102.704C180.84 102.896 180.637 103.749 180.232 105.264C179.485 107.952 178.931 110.299 178.568 112.304C178.355 113.563 178.131 115.216 177.896 117.264C177.683 119.013 177.491 120.24 177.32 120.944C177.171 121.648 176.925 122 176.584 122C175.965 122 175.24 121.744 174.408 121.232C173.597 120.699 172.893 120.048 172.296 119.28C171.976 118.853 171.528 118.021 170.952 116.784C170.376 115.547 169.811 114.16 169.256 112.624C168.723 111.067 168.317 109.616 168.04 108.272L167.816 112.304C167.603 113.563 167.379 115.216 167.144 117.264C166.931 119.013 166.739 120.24 166.568 120.944C166.419 121.648 166.173 122 165.832 122C165.341 122 164.755 121.829 164.072 121.488C163.411 121.125 162.824 120.699 162.312 120.208C161.821 119.717 161.576 119.312 161.576 118.992C161.555 118.651 161.651 117.936 161.864 116.848C162.099 115.739 162.248 115.024 162.312 114.704C162.397 114.277 162.557 113.499 162.792 112.368C163.027 111.216 163.219 110.149 163.368 109.168L163.624 107.664C164.029 105.275 164.403 103.333 164.744 101.84C165.107 100.347 165.469 99.6 165.832 99.6C166.195 99.6 166.685 99.76 167.304 100.08C167.944 100.379 168.52 100.752 169.032 101.2C169.565 101.648 169.907 102.075 170.056 102.48C171.059 105.168 172.285 108.795 173.736 113.36L174.12 109.168L174.376 107.664C174.781 105.275 175.155 103.333 175.496 101.84C175.859 100.347 176.221 99.6 176.584 99.6ZM197.229 99.6C197.634 99.8347 197.933 100.165 198.125 100.592C198.338 100.997 198.444 101.445 198.444 101.936C198.444 102.363 198.359 102.789 198.189 103.216C198.018 103.643 197.794 103.995 197.517 104.272C195.085 104.315 192.791 104.421 190.637 104.592C190.53 105.04 190.306 106.032 189.965 107.568C189.922 107.76 189.783 108.432 189.549 109.584C191.831 109.392 193.634 109.136 194.957 108.816C195.383 109.072 195.703 109.413 195.917 109.84C196.151 110.245 196.269 110.693 196.269 111.184C196.269 111.632 196.173 112.059 195.981 112.464C195.81 112.848 195.565 113.157 195.245 113.392C194.839 113.435 194.434 113.467 194.029 113.488C193.645 113.509 193.271 113.531 192.909 113.552L188.909 113.84C188.738 114.928 188.567 116.219 188.397 117.712C188.205 119.312 188.034 120.432 187.885 121.072C187.735 121.691 187.49 122 187.149 122C186.615 122 186.007 121.819 185.325 121.456C184.663 121.072 184.087 120.635 183.597 120.144C183.127 119.632 182.893 119.216 182.893 118.896C182.893 118.576 182.999 117.872 183.213 116.784C183.447 115.696 183.703 114.523 183.981 113.264C184.941 109.125 185.506 106.288 185.677 104.752L184.333 104.848C183.927 104.635 183.597 104.325 183.341 103.92C183.106 103.493 182.989 103.035 182.989 102.544C182.989 101.691 183.319 100.933 183.981 100.272C186.903 100.229 189.442 100.165 191.597 100.08C193.773 99.9947 195.65 99.8347 197.229 99.6ZM206.336 99.28C207.893 99.28 209.365 99.6533 210.752 100.4C212.16 101.147 213.28 102.139 214.112 103.376C214.965 104.592 215.392 105.861 215.392 107.184C215.392 109.253 214.837 111.472 213.728 113.84C212.618 116.187 211.21 118.16 209.504 119.76C207.818 121.36 206.154 122.16 204.512 122.16C203.658 122.16 202.698 121.808 201.632 121.104C200.586 120.379 199.69 119.525 198.944 118.544C198.197 117.541 197.824 116.656 197.824 115.888C197.824 114.672 198.186 112.581 198.912 109.616C199.637 106.629 200.309 104.432 200.928 103.024C201.632 102.811 202.293 102.704 202.912 102.704C203.338 102.704 203.68 102.747 203.936 102.832C203.893 102.043 204.085 101.317 204.512 100.656C204.938 99.9947 205.546 99.536 206.336 99.28ZM203.04 117.776C205.088 117.029 206.805 115.6 208.192 113.488C209.578 111.355 210.56 109.019 211.136 106.48C210.538 106.053 209.76 105.701 208.8 105.424C207.861 105.147 206.848 104.997 205.76 104.976C205.802 105.189 205.845 105.509 205.888 105.936C203.925 109.605 202.976 113.552 203.04 117.776Z" fill="url(#paint1_linear_31_16)"/>
<defs>
<linearGradient id="paint0_linear_31_16" x1="143.053" y1="41" x2="74.0534" y2="41" gradientUnits="userSpaceOnUse">
<stop stop-color="#901616"/>
<stop offset="1" stop-color="#165590"/>
</linearGradient>
<linearGradient id="paint1_linear_31_16" x1="216" y1="113.537" x2="1" y2="113.537" gradientUnits="userSpaceOnUse">
<stop stop-color="#901616"/>
<stop offset="1" stop-color="#165590"/>
</linearGradient>
</defs>
</svg>
