<svg width="70" height="82" viewBox="0 0 70 82" fill="none" xmlns="http://www.w3.org/2000/svg">
<path fill-rule="evenodd" clip-rule="evenodd" d="M12.7114 0C10.8513 0 9.2367 1.28221 8.81536 3.09395L0.105359 40.547L4.05312e-06 41L0.105359 41.453L8.81536 78.9061C9.2367 80.7178 10.8513 82 12.7114 82H55.5015C57.328 82 58.9225 80.7628 59.3762 78.9935L68.9907 41.4967L69.1181 41L68.9907 40.5033L59.3762 3.0065C58.9225 1.23725 57.328 0 55.5015 0H12.7114ZM13.1231 4H55.0534V78H13.1231V4ZM59.0534 64.1477V17.8523L64.9887 41L59.0534 64.1477ZM9.12314 62.5705L4.10675 41L9.12314 19.4295V62.5705ZM18.0534 7H16.0534V9V73V75H18.0534H50.0534H52.0534V73V9V7H50.0534H18.0534ZM20.0534 71V11H48.0534V71H20.0534ZM36.7475 37.2918L34.0534 29L31.3592 37.2918H22.6407L29.6941 42.4164L27 50.7082L34.0534 45.5836L41.1068 50.7082L38.4126 42.4164L45.4661 37.2918H36.7475Z" fill="url(#paint0_linear_31_13)"/>
<defs>
<linearGradient id="paint0_linear_31_13" x1="69.0534" y1="41" x2="0.0533736" y2="41" gradientUnits="userSpaceOnUse">
<stop stop-color="#901616"/>
<stop offset="1" stop-color="#165590"/>
</linearGradient>
</defs>
</svg>
