<svg width="38" height="31" viewBox="0 0 38 31" fill="none" xmlns="http://www.w3.org/2000/svg">
<path d="M1.93689 12.1359V12.1359C1.38457 12.5041 1.31656 13.2897 1.79738 13.7473L10.8693 22.3823C11.4383 22.9239 12.2716 23.0822 12.9996 22.7871L35.8355 13.5292C36.5673 13.2325 36.6948 12.2505 36.0631 11.7767V11.7767" stroke="#165590"/>
<path d="M1.93689 13.5728V13.5728C1.38457 13.941 1.31656 14.7266 1.79738 15.1842L10.8693 23.8192C11.4383 24.3608 12.2716 24.5191 12.9996 24.224L35.8355 14.9661C36.5673 14.6694 36.6948 13.6874 36.0631 13.2136V13.2136" stroke="#165590"/>
<path d="M1.93689 15.0097V15.0097C1.38457 15.3779 1.31656 16.1635 1.79738 16.6211L10.8693 25.2561C11.4383 25.7977 12.2716 25.956 12.9996 25.6609L35.8355 16.403C36.5673 16.1063 36.6948 15.1243 36.0631 14.6505V14.6505" stroke="#165590"/>
<path d="M1.93689 16.4466V16.4466C1.38457 16.8148 1.31656 17.6004 1.79738 18.058L10.8693 26.693C11.4383 27.2345 12.2716 27.3929 12.9996 27.0978L35.8355 17.8399C36.5673 17.5432 36.6948 16.5612 36.0631 16.0874V16.0874" stroke="#165590"/>
<path d="M1.93689 17.8835V17.8835C1.38457 18.2517 1.31656 19.0373 1.79738 19.4949L10.8693 28.1299C11.4383 28.6714 12.2716 28.8298 12.9996 28.5347L35.8355 19.2768C36.5673 18.9801 36.6948 17.9981 36.0631 17.5243V17.5243" stroke="#165590"/>
<path d="M1.93689 19.3204V19.3204C1.38457 19.6886 1.31656 20.4741 1.79738 20.9318L10.8693 29.5667C11.4383 30.1083 12.2716 30.2667 12.9996 29.9716L35.8355 20.7137C36.5673 20.417 36.6948 19.435 36.0631 18.9612V18.9612" stroke="#165590"/>
<path d="M3.03874 9.41065L25.397 1.39543C26.0782 1.15122 26.8382 1.29405 27.3842 1.7689L35.5602 8.87841C36.6816 9.85354 36.3855 11.6678 35.0122 12.2358L13.0112 21.3356C12.2776 21.639 11.4341 21.4799 10.8615 20.93L2.32839 12.7359C1.2574 11.7075 1.641 9.91172 3.03874 9.41065Z" stroke="#165590"/>
</svg>
